<?xml version="1.0" encoding="UTF-8"?>
<!-- Generated by Pixelmator Pro 3.6.18 -->
<svg width="2097" height="762" viewBox="0 0 2097 762" xmlns="http://www.w3.org/2000/svg">
    <path id="Shape" fill="#00457c" fill-rule="evenodd" stroke="none" d="M 416 761.373169 C 410.224976 761.629517 401.224976 761.458618 396 760.993347 C 390.775024 760.528076 379.075012 759.679932 370 759.108582 C 360.055542 758.482422 351.62677 757.427307 348.785156 756.45282 C 346.191895 755.563538 341.691895 754.240479 338.785156 753.512634 C 335.878296 752.784851 331.025024 751.119141 328 749.811035 C 324.974976 748.50293 320.700012 746.257935 318.5 744.822205 C 316.299988 743.386475 312.882385 740.476624 310.905273 738.355896 C 308.928223 736.235107 306.289734 732.789368 305.041992 730.698608 C 303.794189 728.607788 302.181641 725.007813 301.458557 722.698608 C 300.735474 720.389343 299.453064 716.700012 298.608826 714.5 C 297.764587 712.299988 296.639771 707.575012 296.109253 704 C 295.578735 700.424988 294.444153 694.575012 293.588013 691 C 292.630005 686.999512 291.411011 672.579163 290.41803 653.5 C 288.990479 626.069458 288.861877 593.138062 289.301392 367.5 C 289.704529 160.542786 290.066895 108.731934 291.224731 92.5 C 292.04541 80.994263 293.325928 70.376465 294.239868 67.5 C 295.113525 64.75 296.10022 60.192383 296.432434 57.37207 C 296.764648 54.551758 298.179626 48.972412 299.576782 44.973389 C 300.973938 40.974365 303.262268 35.406982 304.661987 32.601318 C 306.061707 29.795532 308.8479 25.777832 310.853455 23.672852 C 312.85907 21.567871 316.521729 18.471802 318.992798 16.792725 C 321.463806 15.11377 325.116882 13.164429 327.110718 12.460938 C 329.104492 11.757568 331.582764 10.679199 332.61792 10.064697 C 333.653076 9.450195 337.875 8.033569 342 6.916504 C 346.125 5.799561 351.525024 4.47583 354 3.975098 C 356.474976 3.474243 365.025024 2.544434 373 1.908936 C 380.974976 1.273438 395.375 0.527588 405 0.251709 C 415.353394 -0.044922 425.767029 0.204224 430.5 0.861938 C 434.900024 1.473389 443.900024 2.248047 450.5 2.583496 C 458.930054 3.011841 465.028687 3.940674 471 5.705566 C 475.674988 7.087158 481.974976 9.131104 485 10.247314 C 488.025024 11.363647 492.850464 13.59082 495.723267 15.196533 C 498.596069 16.802368 503.019348 20.452637 505.552795 23.308105 C 508.086182 26.163574 511.305237 30.974976 512.706177 34 C 514.107117 37.025024 515.8255 41.839966 516.524841 44.699951 C 517.224121 47.559814 518.566833 51.917358 519.508606 54.383423 C 520.450378 56.849365 521.548218 62.609497 521.948181 67.183594 C 522.348145 71.757568 523.531921 79.773438 524.578857 84.996704 C 526.354309 93.854614 526.482971 99.85376 526.49115 174.193848 C 526.498291 238.239624 526.244812 254.150269 525.200745 255.197144 C 524.179871 256.220825 514.192749 256.559814 478.592285 256.779053 C 449.975952 256.955322 432.309937 256.68811 430.641602 256.053833 C 428 255.0495 428 255.0495 427.97644 177.27478 C 427.953918 102.80542 427.868225 99.181274 425.959778 92 C 424.361328 85.985352 423.179321 83.71228 419.991394 80.522705 C 416.050781 76.5802 415.951294 76.546143 408.564575 76.611084 C 402.166748 76.667236 400.645325 77.036987 397.806458 79.225586 C 395.987915 80.627441 393.375 83.867432 392 86.425537 C 389.5 91.076416 389.5 91.076416 389.5 381.035034 C 389.5 670.99353 389.5 670.99353 391.915833 675.547424 C 393.244507 678.052002 395.641602 681.203491 397.242554 682.550659 C 399.828125 684.726318 401.096436 685 408.591431 685 C 416.738892 685 417.147827 684.888123 420.469177 681.75 C 423.357666 679.020874 424.236816 677.0849 425.954468 669.671021 C 427.947571 661.068481 428 658.092896 428 553.612183 C 428 462.581665 428.214417 446.088989 429.419434 444.441162 C 430.789185 442.567749 432.463318 442.5 477.369385 442.5 C 514.256653 442.5 524.169434 442.769897 525.200012 443.802246 C 526.25116 444.855225 526.497009 466.298462 526.484497 555.840271 C 526.470032 659.612549 526.352295 667.171143 524.612915 676.038086 C 523.592102 681.242126 522.40979 689.104309 521.985657 693.509583 C 521.561523 697.914856 520.000427 705.564819 518.516541 710.509583 C 517.032654 715.454346 514.658752 722.200012 513.241272 725.5 C 511.82373 728.799988 509.255005 733.503052 507.533081 735.951172 C 505.811157 738.399292 502.294067 741.885254 499.717285 743.697876 C 497.140564 745.510376 491.987549 748.303589 488.266174 749.905029 C 484.5448 751.506348 477.477112 754.023987 472.560303 755.499756 C 467.643433 756.975464 460.218384 758.396179 456.060303 758.656799 C 451.9021 758.91748 443.549988 759.530396 437.5 760.01886 C 431.450012 760.507324 421.775024 761.11676 416 761.373169 Z M 888 761.845459 C 883.324951 761.770142 871.849976 761.095886 862.5 760.347046 C 853.150024 759.598267 843.025024 758.582947 840 758.09082 C 836.974976 757.598633 830.900024 756.09729 826.5 754.754639 C 822.099976 753.411926 815.519409 750.887146 811.876465 749.144043 C 808.233521 747.40094 803.15918 744.131714 800.600098 741.87915 C 798.040894 739.626465 794.667236 735.919678 793.102783 733.641724 C 791.538574 731.36377 788.914001 726.125 787.27063 722 C 785.627258 717.875 783.951294 712.25 783.546204 709.5 C 783.141113 706.75 782.148804 702.924988 781.341125 701 C 780.533447 699.075012 779.459106 692.549988 778.953796 686.5 C 778.448425 680.450012 777.289551 671 776.378418 665.5 C 774.931946 656.767822 774.669678 642.308167 774.310181 551.448669 C 774.034424 481.755371 774.237244 446.506226 774.924438 444.698669 C 775.9505 442 775.9505 442 825 442 C 874.049561 442 874.049561 442 875.02478 444.565063 C 875.63623 446.173584 876.016357 488.779785 876.043945 558.815063 C 876.080688 652.450806 876.316406 671.146423 877.502197 674.5 C 878.280029 676.700012 880.503662 679.962524 882.443604 681.75 C 885.749023 684.795776 886.427002 684.999756 893.235352 684.996277 C 898.538452 684.99353 901.319092 684.493042 903.533325 683.1427 C 905.20166 682.125305 907.676758 679.2005 909.033325 676.643066 C 911.5 671.993286 911.5 671.993286 911.5 553.499756 C 911.5 435.006226 911.5 435.006226 909.118286 430.516724 C 907.80835 428.047485 904.658325 424.100891 902.118286 421.74646 C 899.578247 419.392029 893.675049 414.923218 889 411.815796 C 884.324951 408.708313 876.339111 403.650757 871.253662 400.576843 C 866.168213 397.502869 856.943115 391.854065 850.753662 388.023926 C 844.564209 384.193726 836.686035 379.448669 833.246826 377.479248 C 829.807617 375.509888 823.507568 371.606812 819.246826 368.805786 C 814.986084 366.004822 808.60083 361.190186 805.057617 358.106567 C 801.514282 355.022949 796.588623 349.891968 794.111694 346.704346 C 791.634766 343.516785 788.557556 339.059082 787.273499 336.798401 C 785.98938 334.53772 783.792847 329.823608 782.392212 326.322693 C 780.991638 322.821777 779.238953 315.804443 778.497375 310.728638 C 777.755798 305.652893 776.397827 297 775.479614 291.5 C 773.982178 282.530396 773.857422 272.380798 774.268677 193 C 774.660339 117.389893 774.960449 103.261963 776.329102 96 C 777.210205 91.324951 778.207642 83 778.545654 77.5 C 778.883667 72 780.013062 64.349976 781.055481 60.5 C 782.0979 56.650024 783.585205 51.025024 784.360596 48 C 785.135925 44.974976 786.663757 40.190796 787.755676 37.368408 C 788.847656 34.545898 791.143188 30.19873 792.856934 27.707886 C 794.570801 25.217041 797.891479 21.533325 800.23645 19.521973 C 802.581421 17.510498 807.827148 14.283447 811.893555 12.35083 C 815.959961 10.417969 822.484985 7.947754 826.393555 6.861206 C 830.302124 5.774658 835.525024 4.447632 838 3.912354 C 840.474976 3.377197 847.675049 2.478271 854 1.914917 C 860.324951 1.351563 875.175049 0.62915 887 0.309692 C 902.93042 -0.12085 913.162842 0.152588 926.5 1.365234 C 936.400024 2.265137 946.75 3.440796 949.5 3.977539 C 952.25 4.514404 957.734863 5.859131 961.688721 6.96582 C 965.642456 8.07251 972.229004 10.568848 976.325684 12.513428 C 980.422119 14.457764 985.79834 17.830811 988.272705 20.008789 C 990.74707 22.186768 994.137451 26.113281 995.807129 28.734375 C 997.476563 31.355469 999.821777 36.199951 1001.018555 39.5 C 1002.21521 42.800049 1003.762451 47.974976 1004.457031 51 C 1005.151367 54.025024 1006.427734 58.75 1007.292969 61.5 C 1008.158447 64.25 1009.14917 70.550049 1009.494873 75.5 C 1009.840454 80.449951 1010.992554 90.349976 1012.055054 97.5 C 1013.823975 109.403137 1013.987427 116.511841 1013.993408 181.75 C 1013.999878 252.001343 1013.971558 253.028442 1011.971802 255.028198 C 1009.983154 257.016846 1009.019653 257.050964 962.521118 256.778198 C 925.248901 256.55957 914.820557 256.221863 913.799316 255.200562 C 912.762695 254.163879 912.398926 237.176819 912 171.200562 C 911.5 88.5 911.5 88.5 909.104736 84.646973 C 907.787354 82.527832 905.312378 79.942017 903.604736 78.900635 C 901.322266 77.508789 898.60022 77.00647 893.32666 77.003662 C 886.983887 77.000488 885.780762 77.313599 882.934448 79.708618 C 881.16394 81.198364 878.889404 84.23584 877.879639 86.458618 C 876.140747 90.286865 876.044067 95.405151 876.046387 183.5 C 876.047974 242.322815 876.418701 278.104004 877.055176 280.864563 C 877.608643 283.265076 879.437256 287.228516 881.118408 289.672241 C 882.799805 292.115967 887.470459 296.733765 891.497559 299.934021 C 895.524902 303.134277 903.922852 308.894409 910.159912 312.734253 C 916.396973 316.574097 926.224976 322.50769 932 325.920044 C 937.775024 329.332397 946.550049 334.618164 951.5 337.666199 C 956.449951 340.714233 964.775024 346.008545 970 349.431396 C 975.224976 352.854248 982.146484 358.081543 985.381104 361.047546 C 988.615723 364.01355 992.921875 368.703735 994.950195 371.470154 C 996.978638 374.236572 999.602661 378.299988 1000.781494 380.5 C 1001.960205 382.700012 1004.106812 387.424988 1005.551636 391 C 1006.99646 394.575012 1008.752197 401.325012 1009.453369 406 C 1010.154541 410.674988 1011.505859 418.549988 1012.456299 423.5 C 1014.047363 431.786194 1014.150391 441.501831 1013.754639 546 C 1013.379028 645.234985 1013.121582 660.566162 1011.705811 667.982849 C 1010.815186 672.648438 1009.8125 680.748413 1009.477783 685.982849 C 1009.142822 691.217285 1008.1604 697.75 1007.294189 700.5 C 1006.428223 703.25 1005.338379 707.454773 1004.872559 709.843933 C 1004.406494 712.233093 1002.866211 717.408081 1001.449463 721.343933 C 1000.032837 725.279785 997.570557 730.535645 995.977905 733.02356 C 994.385254 735.511597 991.826172 738.695435 990.291016 740.098877 C 988.755981 741.502319 985.25 744.034607 982.5 745.726074 C 979.75 747.417603 975.25 749.710449 972.5 750.821411 C 969.75 751.932251 963.224976 754.049438 958 755.526184 C 951.897217 757.251038 944.208862 758.514771 936.5 759.060059 C 929.900024 759.526978 918.199951 760.375549 910.5 760.94574 C 902.800049 761.51593 892.675049 761.920776 888 761.845459 Z M 51.184906 759.921021 C 25.025238 759.874878 5.402985 759.440063 3.853897 758.872314 C 2.398544 758.338989 0.982834 757.042358 0.70787 755.990906 C 0.432922 754.939453 55.355011 6.107178 56.503357 4.354492 C 57.340424 3.077026 59.032104 1.785156 60.262634 1.483643 C 61.493195 1.182251 94.990173 1.0625 134.700348 1.217773 C 190.158447 1.43457 207.185608 1.784912 208.129395 2.729004 C 208.927429 3.527344 265.915161 754.890747 265.158295 756.55188 C 264.470612 758.061157 262.921753 759.105408 260.796021 759.49292 C 258.983215 759.823303 236.934662 759.960083 211.799255 759.796814 C 176.516235 759.567627 165.809265 759.210571 164.82959 758.230347 C 163.97699 757.377258 155.223511 589.366394 154.450562 588.593445 C 153.369965 587.512817 148.591675 587.098633 133.772614 586.801086 C 123.172668 586.588257 113.514862 586.74939 112.310791 587.15918 C 111.10675 587.56897 109.665619 588.756287 109.108276 589.797668 C 108.534515 590.869751 101.938751 753.00238 101.539917 754.818237 C 101.053741 757.031799 99.999908 758.429749 98.342285 759.059937 C 96.921204 759.60022 76.867828 759.966431 51.184906 759.921021 Z M 652.200684 758.701538 C 625.575134 758.816406 604.532776 758.507935 603.25 757.983765 C 601 757.064453 601 757.064453 600.985229 420.282227 C 600.97345 151.054504 600.717224 82.998535 599.707764 81 C 598.445068 78.5 598.445068 78.5 576.770081 78 C 560.873413 77.633301 554.749207 77.153442 553.797546 76.199951 C 552.783752 75.184326 552.5 67.267822 552.5 40 C 552.5 12.69751 552.78302 4.817017 553.799988 3.800049 C 554.848511 2.751465 573.556396 2.5 650.5 2.5 C 727.443604 2.5 746.151489 2.751465 747.200012 3.800049 C 748.21698 4.817017 748.5 12.69751 748.5 40 C 748.5 67.26709 748.216248 75.184326 747.202454 76.199951 C 746.254028 77.150269 740.229431 77.634521 724.809082 78 C 707.493958 78.4104 703.55365 78.768799 702.822815 80 C 702.308167 80.866943 701.841187 223.79657 701.716187 418.700012 C 701.539856 693.725708 701.260437 756.139771 700.200684 757.200012 C 699.177673 758.223633 688.972595 758.542847 652.200684 758.701538 Z M 1307.700562 758.677979 C 1263.288818 758.781677 1230.192993 758.469543 1228.367065 757.929688 C 1226.413086 757.352051 1225.00708 756.156128 1224.630737 754.751709 C 1224.298828 753.513306 1224.021118 584.762512 1224.013672 379.75 C 1224 8.324219 1224.00708 6.99292 1226 5 C 1227.941895 3.058105 1229.333374 3 1273.934937 3 C 1301.36084 3 1320.90332 3.392944 1322.434937 3.97522 C 1325 4.950439 1325 4.950439 1325 341.852783 C 1325 616.74176 1325.238892 678.953369 1326.297607 679.832031 C 1327.136963 680.528564 1337.537109 681.013245 1355.749146 681.204468 C 1377.197021 681.429565 1384.212402 681.809692 1385.201538 682.799988 C 1386.217896 683.817566 1386.5 691.899658 1386.5 720 C 1386.5 748.115723 1386.218262 756.181885 1385.200562 757.200012 C 1384.160156 758.240723 1368.704834 758.535522 1307.700562 758.677979 Z M 1475.700684 758.648438 C 1450.290283 758.730042 1428.710449 758.584167 1427.745483 758.324219 C 1426.780518 758.06427 1425.60498 757.097534 1425.133179 756.175781 C 1424.632935 755.198486 1480.300781 7.306519 1480.94165 6.109009 C 1481.555542 4.962036 1483.057251 3.778809 1484.278809 3.479492 C 1485.500488 3.180298 1518.765137 3.0625 1558.200317 3.217773 C 1615.334839 3.442627 1630.164185 3.763672 1631.197998 4.797607 C 1632.119995 5.719849 1687.244141 752.074341 1687.334961 753.998657 C 1687.486938 757.221069 1687.223755 757.562256 1684 758.320313 C 1682.074951 758.772949 1660.384644 758.998535 1635.799194 758.821655 C 1600.805908 758.569824 1590.816284 758.217773 1589.799194 757.2005 C 1588.852783 756.253906 1581.72229 589.568481 1579.080933 586.927124 C 1576.391846 584.237976 1576.391846 584.237976 1555.945923 584.680542 C 1544.700684 584.92395 1534.511719 585.524658 1533.303955 586.015503 C 1531.872559 586.597168 1530.922974 588.055725 1530.576904 590.203979 C 1530.284912 592.016785 1524.148193 756.252075 1523.19812 757.202576 C 1522.177368 758.223999 1512.072021 758.531616 1475.700684 758.648438 Z M 1811.433472 758.77832 C 1763.965698 759.056519 1763.965698 759.056519 1761.647705 756.738525 C 1759.613525 754.704468 1695.44812 13.524902 1694.860718 10.786377 C 1694.071899 7.107788 1694.093994 5.505737 1694.945679 4.653564 C 1695.773438 3.825195 1708.841431 3.41626 1741.299194 3.203003 C 1766.159668 3.039673 1787.958862 3.171875 1789.741943 3.496826 C 1792.009155 3.909912 1793.130737 4.750977 1793.47229 6.293823 C 1793.740845 7.507202 1817.222168 403.082031 1817.605957 409.496887 C 1818.081543 417.457275 1818.753906 421.611023 1819.723145 422.580078 C 1820.503906 423.361084 1822.405762 424 1823.948975 424 C 1825.492188 424 1827.24707 423.406982 1827.848633 422.682251 C 1828.450195 421.95752 1829.216797 416.219971 1829.55249 409.932251 C 1829.888184 403.644531 1858.570801 6.429199 1860.188477 4.811768 C 1861.972656 3.027344 1864.012451 2.946533 1900.484863 3.216064 C 1928.682617 3.424561 1939.220703 3.818848 1940.099609 4.69873 C 1940.758545 5.358154 1979.712402 421.014038 1980.787598 422.25 C 1981.625 423.212524 1983.558105 424 1985.083496 424 C 1986.608887 424 1988.483398 423.37384 1989.248535 422.608521 C 1990.208496 421.648499 2005.924805 6.479248 2008.041016 4.765869 C 2010.04834 3.140137 2013.583008 3 2052.554199 3 C 2094.597656 3 2094.896729 3.014526 2096.376709 5.127319 C 2097.627686 6.913574 2048.730713 753.762207 2047.533203 755.589905 C 2046.679688 756.892456 2044.589111 758.166504 2042.757568 758.500366 C 2040.96582 758.827026 2019.345703 758.960571 1994.712891 758.797119 C 1958.033936 758.553833 1949.772217 758.251099 1949.076904 757.125366 C 1948.609863 756.369263 1913.230957 339.467285 1912.413574 334.538452 C 1911.59082 329.577148 1910.20459 324.778687 1909.308594 323.788452 C 1908.418457 322.80481 1906.495605 322 1905.036133 322 C 1903.57666 322 1901.508789 322.638428 1900.441162 323.418823 C 1898.802979 324.616089 1898.453613 326.294189 1898.202881 334.168823 C 1898.039551 339.300964 1860.559326 756.841064 1859.970947 757.429688 C 1859.249023 758.151978 1843.468262 758.590454 1811.433472 758.77832 Z M 1557.032593 509 C 1573.23291 509 1575.939941 508.7771 1577.127563 507.345337 C 1578.171997 506.086182 1559.524414 115.825012 1559.088379 115 C 1558.652466 114.174988 1557.345093 113.358276 1556.183228 113.185059 C 1554.647827 112.956177 1553.941772 113.502563 1553.598999 115.185059 C 1553.3396 116.458313 1535.384399 505.767212 1536.655029 507.171265 C 1538.145996 508.818848 1540.164429 509 1557.032593 509 Z M 133.345032 508 C 148.408936 508 149.831604 507.843567 151.496338 506.004028 C 153.141968 504.185669 134.342712 118.060608 133.472992 117.131653 C 132.768402 116.379089 131.69873 116.068176 131.095947 116.440674 C 130.419006 116.85907 113.641571 491.927124 113.318695 496.115845 C 112.788483 502.993896 112.938354 503.938354 114.865814 505.865845 C 116.870636 507.870605 117.990753 508 133.345032 508 Z"/>
</svg>
